<?xml version="1.0" encoding="UTF-8"?>
<svg id="Layer_2" data-name="Layer 2" xmlns="http://www.w3.org/2000/svg" viewBox="0 0 147.04 32.79">
  <defs>
    <style>
      .cls-1 {
        fill: #460078;
      }

      .cls-2 {
        fill: #fff;
      }
    </style>
  </defs>
  <g id="Layer_1-2" data-name="Layer 1">
    <g>
      <g>
        <circle class="cls-1" cx="16.39" cy="16.39" r="16.39"/>
        <g>
          <polygon class="cls-2" points="27.67 9.53 22.09 10.08 30.31 15.62 27.67 9.53"/>
          <polygon class="cls-2" points="15 12.84 4.02 7.29 16.48 27.36 15 12.84"/>
          <polygon class="cls-2" points="16.98 27.6 25.45 12.91 21.47 10.22 15.89 16.98 16.98 27.6"/>
        </g>
      </g>
      <g>
        <path d="M42.42,11.13l-1.87-.31v-1.49h3.58c.54,0,1.25-.03,2.11-.1.21-.02.46-.03.74-.05.29-.02.62-.02,1.01-.02,2.42,0,4.11.34,5.08,1.02.97.68,1.45,1.69,1.45,3.04,0,1.18-.36,2.17-1.07,2.96-.71.79-1.64,1.28-2.79,1.45,1.58-.02,2.83.34,3.73,1.08.9.74,1.36,1.76,1.36,3.07,0,1.66-.58,3-1.75,4.01s-3.12,1.51-5.86,1.51c-.72,0-1.38-.02-1.99-.07-.16,0-.43-.01-.82-.04-.38-.02-.78-.04-1.18-.04h-3.62v-1.44l1.9-.24v-14.35ZM46.98,17.13h1.13c.98,0,1.71-.3,2.18-.91.48-.61.72-1.46.72-2.57s-.25-1.82-.74-2.3c-.5-.48-1.32-.72-2.47-.72-.3,0-.94.03-1.9.1v6.38c.18.02.54.02,1.08.02ZM48.01,25.8c1.36,0,2.34-.32,2.95-.96s.91-1.57.91-2.78-.28-2-.83-2.51-1.43-.76-2.63-.76c-1.34,0-2.18.02-2.52.05v6.74c.37.14,1.07.22,2.11.22Z"/>
        <path d="M58.92,25.57c-1.03-1.24-1.55-2.93-1.55-5.08,0-1.44.27-2.69.8-3.74.54-1.06,1.29-1.86,2.27-2.42.98-.56,2.1-.84,3.38-.84,1.6,0,2.83.42,3.7,1.26.86.84,1.31,2.04,1.34,3.59,0,1.06-.06,1.84-.19,2.35h-7.8c.06,1.46.41,2.59,1.03,3.4.62.81,1.51,1.21,2.66,1.21.62,0,1.27-.1,1.93-.31.66-.21,1.19-.46,1.57-.74l.6,1.32c-.43.46-1.13.89-2.1,1.28-.97.39-1.95.59-2.94.59-2.11,0-3.68-.62-4.72-1.86ZM65.51,19.25c.03-.45.05-.79.05-1.03,0-2.13-.71-3.19-2.14-3.19-.78,0-1.39.31-1.82.94s-.67,1.72-.72,3.29h4.63Z"/>
        <path d="M72.59,26.68c-.48-.46-.72-1.2-.72-2.21v-8.81h-1.56v-1.25c.13-.05.36-.13.7-.25s.59-.22.77-.3c.27-.21.5-.57.7-1.08.14-.34.41-1.17.79-2.5h1.92l.1,3.53h3.67v1.85h-3.65v6.74c0,.9.02,1.53.07,1.9.05.37.15.6.31.71.16.1.44.16.84.16s.82-.04,1.25-.13c.43-.09.79-.2,1.08-.32l.46,1.34c-.45.34-1.1.64-1.97.91-.86.27-1.7.41-2.52.41-1.01,0-1.75-.23-2.23-.7Z"/>
        <path d="M81.48,16.68c.6-1.06,1.4-1.85,2.41-2.39s2.1-.8,3.29-.8c2.02,0,3.57.62,4.67,1.86,1.1,1.24,1.64,2.92,1.64,5.05,0,1.52-.3,2.81-.9,3.88-.6,1.06-1.4,1.86-2.4,2.38-1,.52-2.1.78-3.3.78-2,0-3.55-.62-4.66-1.86-1.1-1.24-1.66-2.92-1.66-5.05,0-1.5.3-2.78.9-3.84ZM89.8,20.64c0-1.82-.22-3.21-.65-4.16-.43-.95-1.14-1.43-2.11-1.43-1.86,0-2.78,1.74-2.78,5.23,0,1.82.23,3.21.68,4.16.46.95,1.17,1.43,2.15,1.43,1.81,0,2.71-1.74,2.71-5.23Z"/>
        <path d="M97.02,16.1l-1.54-.43v-1.66l3.98-.5h.07l.6.48v.94l-.02.58c.56-.53,1.29-.98,2.18-1.37s1.8-.58,2.71-.58c.98,0,1.74.18,2.29.54.55.36.95.92,1.19,1.69.24.77.36,1.81.36,3.12v6.62l1.46.19v1.44h-6.19v-1.44l1.3-.19v-6.62c0-.83-.06-1.48-.17-1.96-.11-.47-.32-.82-.61-1.03-.3-.22-.72-.32-1.26-.32-.91,0-1.89.39-2.93,1.18v8.74l1.44.22v1.44h-6.26v-1.44l1.39-.22v-9.41Z"/>
        <path d="M113.95,20.13c1.46-.74,3.36-1.11,5.68-1.13v-.55c0-.66-.07-1.17-.2-1.54s-.38-.64-.74-.83c-.36-.18-.88-.28-1.57-.28-.79,0-1.49.1-2.11.3s-1.27.46-1.94.78l-.74-1.54c.24-.21.64-.46,1.21-.74.57-.29,1.24-.54,2.03-.76.78-.22,1.59-.32,2.42-.32,1.23,0,2.2.16,2.89.48.7.32,1.2.83,1.5,1.54.3.7.46,1.65.46,2.83v7.34h1.3v1.34c-.32.08-.78.16-1.37.24-.59.08-1.11.12-1.56.12-.54,0-.91-.08-1.09-.24-.18-.16-.28-.49-.28-.98v-.65c-.43.48-.99.91-1.68,1.3s-1.46.58-2.33.58c-.74,0-1.41-.16-2.03-.47-.62-.31-1.11-.77-1.48-1.37s-.55-1.32-.55-2.17c0-1.46.73-2.55,2.2-3.29ZM118.5,25.14c.43-.2.81-.44,1.13-.73v-3.94c-1.44,0-2.52.24-3.23.73-.71.49-1.07,1.12-1.07,1.88s.18,1.35.54,1.75c.36.4.85.6,1.48.6.34,0,.72-.1,1.15-.3Z"/>
        <path d="M124.53,8.01l4.39-.53h.05l.67.46v7.08c.43-.43.96-.8,1.6-1.09.63-.3,1.32-.44,2.05-.44,1.54,0,2.79.54,3.76,1.62.97,1.08,1.45,2.73,1.45,4.96,0,1.38-.29,2.62-.86,3.74s-1.4,2-2.48,2.65c-1.08.65-2.33.97-3.76.97-1.26,0-2.36-.11-3.29-.32-.93-.22-1.52-.41-1.78-.59V9.55l-1.8-.29v-1.25ZM130.66,15.92c-.42.22-.76.46-1.02.73v8.76c.1.18.32.32.67.43.35.11.75.17,1.2.17,1.02,0,1.84-.48,2.46-1.43.62-.95.92-2.36.92-4.24,0-1.62-.26-2.81-.79-3.59-.53-.78-1.22-1.16-2.09-1.16-.48,0-.93.11-1.36.32Z"/>
        <path d="M142.02,16.1l-1.7-.46v-1.61l4.39-.53h.05l.67.48v11.54l1.61.19v1.44h-6.7v-1.44l1.68-.22v-9.41ZM141.92,11.13c-.34-.34-.5-.77-.5-1.3,0-.61.19-1.11.58-1.51.38-.4.9-.6,1.54-.6s1.13.17,1.46.52c.34.34.5.77.5,1.28,0,.64-.19,1.15-.58,1.54-.38.38-.92.58-1.61.58h-.02c-.58,0-1.03-.17-1.37-.5Z"/>
      </g>
    </g>
  </g>
</svg>