<?xml version="1.0" encoding="UTF-8"?>
<svg id="Layer_2" data-name="Layer 2" xmlns="http://www.w3.org/2000/svg" viewBox="0 0 147.04 51.87">
  <defs>
    <style>
      .cls-1 {
        fill: #460078;
      }

      .cls-2 {
        fill: #fff;
      }

      .cls-3 {
        fill: #4c4c4c;
      }
    </style>
  </defs>
  <g id="Layer_1-2" data-name="Layer 1">
    <g>
      <g>
        <circle class="cls-1" cx="16.39" cy="16.39" r="16.39"/>
        <g>
          <polygon class="cls-2" points="27.67 9.53 22.09 10.08 30.31 15.62 27.67 9.53"/>
          <polygon class="cls-2" points="15 12.84 4.02 7.29 16.48 27.36 15 12.84"/>
          <polygon class="cls-2" points="16.98 27.6 25.45 12.91 21.47 10.22 15.89 16.98 16.98 27.6"/>
        </g>
      </g>
      <g>
        <path d="M42.42,11.13l-1.87-.31v-1.49h3.58c.54,0,1.25-.03,2.11-.1.21-.02.46-.03.74-.05.29-.02.62-.02,1.01-.02,2.42,0,4.11.34,5.08,1.02.97.68,1.45,1.69,1.45,3.04,0,1.18-.36,2.17-1.07,2.96-.71.79-1.64,1.28-2.79,1.45,1.58-.02,2.83.34,3.73,1.08.9.74,1.36,1.76,1.36,3.07,0,1.66-.58,3-1.75,4.01s-3.12,1.51-5.86,1.51c-.72,0-1.38-.02-1.99-.07-.16,0-.43-.01-.82-.04-.38-.02-.78-.04-1.18-.04h-3.62v-1.44l1.9-.24v-14.35ZM46.98,17.13h1.13c.98,0,1.71-.3,2.18-.91.48-.61.72-1.46.72-2.57s-.25-1.82-.74-2.3c-.5-.48-1.32-.72-2.47-.72-.3,0-.94.03-1.9.1v6.38c.18.02.54.02,1.08.02ZM48.01,25.8c1.36,0,2.34-.32,2.95-.96s.91-1.57.91-2.78-.28-2-.83-2.51-1.43-.76-2.63-.76c-1.34,0-2.18.02-2.52.05v6.74c.37.14,1.07.22,2.11.22Z"/>
        <path d="M58.92,25.57c-1.03-1.24-1.55-2.93-1.55-5.08,0-1.44.27-2.69.8-3.74.54-1.06,1.29-1.86,2.27-2.42.98-.56,2.1-.84,3.38-.84,1.6,0,2.83.42,3.7,1.26.86.84,1.31,2.04,1.34,3.59,0,1.06-.06,1.84-.19,2.35h-7.8c.06,1.46.41,2.59,1.03,3.4.62.81,1.51,1.21,2.66,1.21.62,0,1.27-.1,1.93-.31.66-.21,1.19-.46,1.57-.74l.6,1.32c-.43.46-1.13.89-2.1,1.28-.97.39-1.95.59-2.94.59-2.11,0-3.68-.62-4.72-1.86ZM65.51,19.25c.03-.45.05-.79.05-1.03,0-2.13-.71-3.19-2.14-3.19-.78,0-1.39.31-1.82.94s-.67,1.72-.72,3.29h4.63Z"/>
        <path d="M72.59,26.68c-.48-.46-.72-1.2-.72-2.21v-8.81h-1.56v-1.25c.13-.05.36-.13.7-.25s.59-.22.77-.3c.27-.21.5-.57.7-1.08.14-.34.41-1.17.79-2.5h1.92l.1,3.53h3.67v1.85h-3.65v6.74c0,.9.02,1.53.07,1.9.05.37.15.6.31.71.16.1.44.16.84.16s.82-.04,1.25-.13c.43-.09.79-.2,1.08-.32l.46,1.34c-.45.34-1.1.64-1.97.91-.86.27-1.7.41-2.52.41-1.01,0-1.75-.23-2.23-.7Z"/>
        <path d="M81.48,16.68c.6-1.06,1.4-1.85,2.41-2.39s2.1-.8,3.29-.8c2.02,0,3.57.62,4.67,1.86,1.1,1.24,1.64,2.92,1.64,5.05,0,1.52-.3,2.81-.9,3.88-.6,1.06-1.4,1.86-2.4,2.38-1,.52-2.1.78-3.3.78-2,0-3.55-.62-4.66-1.86-1.1-1.24-1.66-2.92-1.66-5.05,0-1.5.3-2.78.9-3.84ZM89.8,20.64c0-1.82-.22-3.21-.65-4.16-.43-.95-1.14-1.43-2.11-1.43-1.86,0-2.78,1.74-2.78,5.23,0,1.82.23,3.21.68,4.16.46.95,1.17,1.43,2.15,1.43,1.81,0,2.71-1.74,2.71-5.23Z"/>
        <path d="M97.02,16.1l-1.54-.43v-1.66l3.98-.5h.07l.6.48v.94l-.02.58c.56-.53,1.29-.98,2.18-1.37s1.8-.58,2.71-.58c.98,0,1.74.18,2.29.54.55.36.95.92,1.19,1.69.24.77.36,1.81.36,3.12v6.62l1.46.19v1.44h-6.19v-1.44l1.3-.19v-6.62c0-.83-.06-1.48-.17-1.96-.11-.47-.32-.82-.61-1.03-.3-.22-.72-.32-1.26-.32-.91,0-1.89.39-2.93,1.18v8.74l1.44.22v1.44h-6.26v-1.44l1.39-.22v-9.41Z"/>
        <path d="M113.95,20.13c1.46-.74,3.36-1.11,5.68-1.13v-.55c0-.66-.07-1.17-.2-1.54s-.38-.64-.74-.83c-.36-.18-.88-.28-1.57-.28-.79,0-1.49.1-2.11.3s-1.27.46-1.94.78l-.74-1.54c.24-.21.64-.46,1.21-.74.57-.29,1.24-.54,2.03-.76.78-.22,1.59-.32,2.42-.32,1.23,0,2.2.16,2.89.48.7.32,1.2.83,1.5,1.54.3.7.46,1.65.46,2.83v7.34h1.3v1.34c-.32.08-.78.16-1.37.24-.59.08-1.11.12-1.56.12-.54,0-.91-.08-1.09-.24-.18-.16-.28-.49-.28-.98v-.65c-.43.48-.99.91-1.68,1.3s-1.46.58-2.33.58c-.74,0-1.41-.16-2.03-.47-.62-.31-1.11-.77-1.48-1.37s-.55-1.32-.55-2.17c0-1.46.73-2.55,2.2-3.29ZM118.5,25.14c.43-.2.81-.44,1.13-.73v-3.94c-1.44,0-2.52.24-3.23.73-.71.49-1.07,1.12-1.07,1.88s.18,1.35.54,1.75c.36.4.85.6,1.48.6.34,0,.72-.1,1.15-.3Z"/>
        <path d="M124.53,8.01l4.39-.53h.05l.67.46v7.08c.43-.43.96-.8,1.6-1.09.63-.3,1.32-.44,2.05-.44,1.54,0,2.79.54,3.76,1.62.97,1.08,1.45,2.73,1.45,4.96,0,1.38-.29,2.62-.86,3.74s-1.4,2-2.48,2.65c-1.08.65-2.33.97-3.76.97-1.26,0-2.36-.11-3.29-.32-.93-.22-1.52-.41-1.78-.59V9.55l-1.8-.29v-1.25ZM130.66,15.92c-.42.22-.76.46-1.02.73v8.76c.1.18.32.32.67.43.35.11.75.17,1.2.17,1.02,0,1.84-.48,2.46-1.43.62-.95.92-2.36.92-4.24,0-1.62-.26-2.81-.79-3.59-.53-.78-1.22-1.16-2.09-1.16-.48,0-.93.11-1.36.32Z"/>
        <path d="M142.02,16.1l-1.7-.46v-1.61l4.39-.53h.05l.67.48v11.54l1.61.19v1.44h-6.7v-1.44l1.68-.22v-9.41ZM141.92,11.13c-.34-.34-.5-.77-.5-1.3,0-.61.19-1.11.58-1.51.38-.4.9-.6,1.54-.6s1.13.17,1.46.52c.34.34.5.77.5,1.28,0,.64-.19,1.15-.58,1.54-.38.38-.92.58-1.61.58h-.02c-.58,0-1.03-.17-1.37-.5Z"/>
      </g>
    </g>
    <g>
      <path class="cls-3" d="M5.13,43.84l-.67-.1v-.43h1.15c.21,0,.41,0,.61-.03.31-.02.6-.03.88-.03.83,0,1.42.16,1.77.47.34.31.52.77.52,1.38,0,.46-.11.86-.32,1.2-.21.34-.51.6-.88.78-.38.18-.81.27-1.3.27-.17,0-.34,0-.51-.01s-.28-.02-.32-.02v1.9l1.18.1v.42h-2.82v-.42l.72-.09v-5.37ZM6.88,46.87c.46,0,.83-.14,1.11-.41.29-.28.43-.73.43-1.35,0-.5-.12-.85-.37-1.07-.25-.22-.63-.32-1.16-.32-.18,0-.38.01-.59.03-.13.01-.21.02-.25.02v3.06c.16.03.44.04.83.04Z"/>
      <path class="cls-3" d="M10.46,43.28l-.72-.09v-.37l1.41-.16h.02l.19.13v2l-.04.73c.18-.17.44-.33.76-.47s.65-.22.98-.22c.36,0,.64.07.85.21.2.14.34.35.42.63.08.28.12.67.12,1.15v2.41l.6.08v.42h-2.06v-.42l.56-.08v-2.42c0-.34-.02-.61-.07-.8s-.13-.34-.26-.43c-.13-.09-.32-.14-.57-.14-.21,0-.43.05-.67.16-.24.1-.44.22-.62.36v3.27l.6.08v.42h-2.01v-.42l.52-.07v-5.95Z"/>
      <path class="cls-3" d="M16.49,47.23c.54-.26,1.23-.39,2.05-.41v-.24c0-.27-.03-.48-.09-.64-.06-.16-.16-.27-.3-.34-.14-.07-.34-.11-.6-.11-.29,0-.56.04-.79.13s-.46.19-.7.31l-.22-.45c.08-.06.21-.15.42-.25.2-.1.43-.2.7-.28.26-.08.53-.12.79-.12.41,0,.73.06.97.17.24.11.41.29.51.54.1.25.16.58.16.99v2.77h.51v.38c-.12.03-.26.06-.44.09-.18.03-.33.04-.46.04-.16,0-.27-.02-.33-.07s-.09-.16-.09-.32v-.29c-.17.17-.38.33-.63.47-.25.14-.53.22-.85.22-.41,0-.76-.12-1.03-.36-.27-.24-.41-.58-.41-1.03,0-.54.27-.94.81-1.2ZM17.99,42.29l1.21,1.68-.34.24-1.21-1.24-1.25,1.24-.33-.23,1.23-1.69h.69ZM18.01,49.09c.2-.09.37-.2.54-.33v-1.48c-.63,0-1.1.1-1.42.29s-.48.44-.48.76.08.54.23.69c.15.15.36.22.62.22.15,0,.32-.05.52-.14Z"/>
      <path class="cls-3" d="M21.04,45.59l-.62-.16v-.47l1.23-.16h.03l.18.16v.57c.2-.18.47-.35.81-.5.34-.15.66-.22.98-.22.36,0,.64.07.84.21.2.14.34.35.42.63.08.28.12.67.12,1.15v2.42l.6.06v.43h-2.05v-.42l.54-.07v-2.43c0-.34-.02-.61-.07-.8s-.13-.34-.26-.43c-.13-.09-.31-.14-.55-.14-.21,0-.43.05-.66.16-.24.1-.45.22-.63.36v3.27l.59.08v.42h-2.04v-.42l.54-.08v-3.63Z"/>
      <path class="cls-3" d="M29.04,49.58c-.16-.15-.24-.41-.24-.77v-3.31h-.62v-.39s.11-.03.24-.06c.13-.03.22-.07.27-.1.09-.05.16-.16.22-.31.05-.11.1-.29.16-.53.06-.24.1-.39.11-.43h.51l.02,1.24h1.44v.57h-1.44v2.65c0,.33,0,.56.03.69.02.13.06.22.13.26.07.04.18.06.34.06s.33-.02.51-.06c.19-.04.33-.08.44-.13l.13.39c-.14.1-.36.2-.67.3-.31.1-.59.15-.84.15-.33,0-.57-.08-.73-.22Z"/>
      <path class="cls-3" d="M32.49,45.59l-.66-.16v-.46l1.34-.16h.02l.2.16v4.26l.69.07v.42h-2.29v-.42l.7-.08v-3.63ZM32.19,43.8l1.38-1.72.66.55c-.12.2-.38.46-.78.8-.4.34-.71.56-.92.65l-.34-.28Z"/>
      <path class="cls-3" d="M34.87,46.06c.19-.39.46-.69.83-.92.37-.23.8-.34,1.32-.34.25,0,.46.02.64.07.18.05.39.11.64.19l-.03,1.33h-.56l-.19-.88c-.03-.16-.25-.24-.66-.24s-.72.16-.95.49c-.23.33-.35.79-.35,1.39,0,.68.13,1.2.39,1.55s.6.53,1.02.53c.24,0,.47-.04.69-.11s.4-.16.56-.27l.16.35c-.16.16-.38.31-.69.44-.3.13-.61.19-.92.19-.47,0-.87-.11-1.2-.32-.33-.21-.57-.5-.73-.88s-.25-.79-.25-1.26.09-.91.28-1.29Z"/>
      <path class="cls-3" d="M39.58,43.28l-.72-.09v-.37l1.41-.16h.02l.19.13v2l-.04.73c.18-.17.44-.33.76-.47s.65-.22.98-.22c.36,0,.64.07.85.21.2.14.34.35.42.63.08.28.12.67.12,1.15v2.41l.6.08v.42h-2.06v-.42l.56-.08v-2.42c0-.34-.02-.61-.07-.8s-.13-.34-.26-.43c-.13-.09-.32-.14-.57-.14-.21,0-.43.05-.67.16-.24.1-.44.22-.62.36v3.27l.6.08v.42h-2.01v-.42l.52-.07v-5.95Z"/>
      <path class="cls-3" d="M47.03,46.06c.19-.39.46-.69.83-.92.37-.23.8-.34,1.32-.34.25,0,.46.02.64.07.18.05.39.11.64.19l-.03,1.33h-.56l-.19-.88c-.03-.16-.25-.24-.66-.24s-.72.16-.95.49c-.23.33-.35.79-.35,1.39,0,.68.13,1.2.39,1.55s.6.53,1.02.53c.24,0,.47-.04.69-.11s.4-.16.56-.27l.16.35c-.16.16-.38.31-.69.44-.3.13-.61.19-.92.19-.47,0-.87-.11-1.2-.32-.33-.21-.57-.5-.73-.88s-.25-.79-.25-1.26.09-.91.28-1.29Z"/>
      <path class="cls-3" d="M51.75,43.28l-.72-.09v-.37l1.41-.16h.02l.19.13v2l-.04.73c.18-.17.44-.33.76-.47s.65-.22.98-.22c.36,0,.64.07.85.21.2.14.34.35.42.63.08.28.12.67.12,1.15v2.41l.6.08v.42h-2.06v-.42l.56-.08v-2.42c0-.34-.02-.61-.07-.8s-.13-.34-.26-.43c-.13-.09-.32-.14-.57-.14-.21,0-.43.05-.67.16-.24.1-.44.22-.62.36v3.27l.6.08v.42h-2.01v-.42l.52-.07v-5.95Z"/>
      <path class="cls-3" d="M60.54,49.7c-.08-.06-.12-.17-.12-.31v-.29c-.19.19-.43.36-.71.5-.28.14-.57.22-.86.22-.54,0-.92-.14-1.14-.43-.22-.29-.34-.76-.34-1.42v-2.5l-.48-.14v-.38l1.21-.11h0l.16.1v2.96c0,.33.02.59.07.78s.13.33.26.41c.12.09.3.13.54.13s.45-.05.65-.15c.2-.1.38-.21.53-.35v-3.27l-.62-.14v-.38l1.31-.11h0l.2.1v4.35h.52v.39c-.17.04-.31.07-.43.09-.12.02-.25.03-.41.03s-.28-.03-.36-.09Z"/>
      <path class="cls-3" d="M62.83,51.85c-.1-.01-.16-.03-.2-.05v-.75s.1.04.2.05c.1.01.2.02.29.02.28,0,.52-.1.73-.29s.41-.56.61-1.11h-.41l-1.64-4.27-.4-.11v-.41h2.08v.41l-.67.1.85,2.55.4,1.26.37-1.27.77-2.54-.58-.1v-.41h1.73v.41l-.43.1c-.85,2.59-1.34,4.06-1.49,4.41-.2.5-.37.88-.54,1.16s-.35.49-.57.64c-.22.15-.49.22-.81.22-.1,0-.19,0-.29-.02Z"/>
      <path class="cls-3" d="M67.89,49.13c-.37-.45-.55-1.06-.55-1.82,0-.5.09-.94.29-1.32.19-.38.46-.67.8-.88.34-.21.73-.31,1.17-.31.54,0,.95.15,1.25.44.3.3.45.72.47,1.27,0,.35-.02.62-.06.8h-2.97c.01.57.14,1.03.4,1.38s.61.52,1.08.52c.23,0,.47-.04.72-.13.25-.08.45-.18.58-.3l.16.38c-.17.17-.41.32-.74.45-.33.13-.66.19-1,.19-.7,0-1.23-.23-1.59-.68ZM69.84,42.29l1.21,1.68-.34.24-1.21-1.24-1.25,1.24-.33-.23,1.23-1.69h.69ZM70.37,46.86c.02-.12.03-.24.03-.37,0-.37-.08-.67-.24-.88s-.39-.32-.72-.32-.6.12-.8.36c-.2.24-.31.65-.34,1.22h2.07Z"/>
      <path class="cls-3" d="M72.58,45.59l-.62-.16v-.47l1.23-.16h.03l.18.16v.57c.2-.18.47-.35.81-.5.34-.15.66-.22.98-.22.36,0,.64.07.84.21.2.14.34.35.42.63.08.28.12.67.12,1.15v2.42l.6.06v.43h-2.05v-.42l.54-.07v-2.43c0-.34-.02-.61-.07-.8s-.13-.34-.26-.43c-.13-.09-.31-.14-.55-.14-.21,0-.43.05-.66.16-.24.1-.45.22-.63.36v3.27l.59.08v.42h-2.04v-.42l.54-.08v-3.63Z"/>
      <path class="cls-3" d="M80.64,49.03c.06.09.18.16.37.23.19.07.38.1.59.1.33,0,.57-.06.73-.19.16-.13.23-.3.23-.53,0-.16-.05-.29-.15-.41s-.23-.22-.41-.31c-.18-.09-.43-.2-.75-.32-.44-.17-.77-.37-.97-.6-.2-.23-.31-.54-.31-.92,0-.25.08-.48.23-.67.15-.19.36-.34.63-.44s.57-.16.89-.16c.26,0,.5.02.69.06.2.04.36.08.48.12.12.04.2.07.24.08v1.07h-.53l-.17-.64c-.04-.07-.13-.13-.28-.18-.15-.05-.32-.07-.5-.07-.26,0-.47.06-.63.17s-.24.27-.24.47c0,.17.04.31.12.43.08.11.19.2.32.27.13.07.3.15.52.24l.17.07c.32.13.58.25.79.36.2.12.37.27.5.45.14.19.2.42.2.69,0,.43-.17.77-.5,1.02-.33.25-.78.38-1.36.38-.28,0-.58-.04-.88-.12-.31-.08-.56-.16-.76-.24v-1.1h.56l.16.67Z"/>
      <path class="cls-3" d="M85.01,47.23c.54-.26,1.23-.39,2.05-.41v-.24c0-.27-.03-.48-.09-.64-.06-.16-.16-.27-.3-.34-.14-.07-.34-.11-.6-.11-.29,0-.56.04-.79.13s-.46.19-.7.31l-.22-.45c.08-.06.21-.15.42-.25.2-.1.43-.2.7-.28.26-.08.53-.12.79-.12.41,0,.73.06.97.17.24.11.41.29.51.54.1.25.16.58.16.99v2.77h.51v.38c-.12.03-.26.06-.44.09-.18.03-.33.04-.46.04-.16,0-.27-.02-.33-.07s-.09-.16-.09-.32v-.29c-.17.17-.38.33-.63.47-.25.14-.53.22-.85.22-.41,0-.76-.12-1.03-.36-.27-.24-.41-.58-.41-1.03,0-.54.27-.94.81-1.2ZM86.51,42.29l1.21,1.68-.34.24-1.21-1.24-1.25,1.24-.33-.23,1.23-1.69h.69ZM86.52,49.09c.2-.09.37-.2.54-.33v-1.48c-.63,0-1.1.1-1.42.29s-.48.44-.48.76.08.54.23.69c.15.15.36.22.62.22.15,0,.32-.05.52-.14Z"/>
      <path class="cls-3" d="M92.61,49.7c-.08-.06-.12-.17-.12-.31v-.29c-.19.19-.43.36-.71.5-.28.14-.57.22-.86.22-.54,0-.92-.14-1.14-.43-.22-.29-.34-.76-.34-1.42v-2.5l-.48-.14v-.38l1.21-.11h0l.16.1v2.96c0,.33.02.59.07.78s.13.33.26.41c.12.09.3.13.54.13s.45-.05.65-.15c.2-.1.38-.21.53-.35v-3.27l-.62-.14v-.38l1.31-.11h0l.2.1v4.35h.52v.39c-.17.04-.31.07-.43.09-.12.02-.25.03-.41.03s-.28-.03-.36-.09Z"/>
      <path class="cls-3" d="M96.14,44.93h2v.41l-.61.11.87,2.49.36,1.1.31-1.06.87-2.52-.59-.11v-.41h1.75v.41l-.45.11-1.67,4.34h-.73l-1.74-4.34-.39-.11v-.41Z"/>
      <path class="cls-3" d="M101.97,49.13c-.37-.45-.55-1.06-.55-1.82,0-.5.09-.94.29-1.32.19-.38.46-.67.8-.88.34-.21.73-.31,1.17-.31.54,0,.95.15,1.25.44.3.3.45.72.47,1.27,0,.35-.02.62-.06.8h-2.97c.01.57.14,1.03.4,1.38s.61.52,1.08.52c.23,0,.47-.04.72-.13.25-.08.45-.18.58-.3l.16.38c-.17.17-.41.32-.74.45-.33.13-.66.19-1,.19-.7,0-1.23-.23-1.59-.68ZM103.89,42.63l1.11,1.31-.33.21-1.09-.92-1.14.92-.29-.2,1.12-1.32h.62ZM104.45,46.86c.02-.12.03-.24.03-.37,0-.37-.08-.67-.24-.88s-.39-.32-.72-.32-.6.12-.8.36c-.2.24-.31.65-.34,1.22h2.07ZM104.69,42.31c-.24-.2-.45-.4-.63-.61l.54-.47.97,1.21-.28.27c-.16-.07-.36-.2-.6-.4Z"/>
      <path class="cls-3" d="M107.66,43.3h2.3v.43l-.77.1,1.42,4.05.32,1.05.28-1.07,1.29-4.03-.68-.1v-.43h1.92v.43l-.55.1-2.05,5.95h-.75l-2.21-5.95-.53-.1v-.43Z"/>
      <path class="cls-3" d="M114.64,45.59l-.66-.16v-.46l1.34-.16h.02l.2.16v4.26l.69.07v.42h-2.29v-.42l.7-.08v-3.63ZM114.57,43.91c-.09-.1-.14-.24-.14-.4,0-.18.06-.34.17-.46.11-.12.27-.18.46-.18s.34.05.43.16c.09.1.14.24.14.4,0,.2-.06.35-.17.47-.11.11-.27.17-.47.17h0c-.18,0-.32-.05-.41-.16Z"/>
      <path class="cls-3" d="M117.37,49.13c-.37-.45-.55-1.06-.55-1.82,0-.5.09-.94.29-1.32.19-.38.46-.67.8-.88.34-.21.73-.31,1.17-.31.54,0,.95.15,1.25.44.3.3.45.72.47,1.27,0,.35-.02.62-.06.8h-2.97c.01.57.14,1.03.4,1.38s.61.52,1.08.52c.23,0,.47-.04.72-.13.25-.08.45-.18.58-.3l.16.38c-.17.17-.41.32-.74.45-.33.13-.66.19-1,.19-.7,0-1.23-.23-1.59-.68ZM119.32,42.29l1.21,1.68-.34.24-1.21-1.24-1.25,1.24-.33-.23,1.23-1.69h.69ZM119.85,46.86c.02-.12.03-.24.03-.37,0-.37-.08-.67-.24-.88s-.39-.32-.72-.32-.6.12-.8.36c-.2.24-.31.65-.34,1.22h2.07ZM118.37,51.32c-.09-.11-.14-.24-.14-.4,0-.18.05-.34.16-.47.11-.13.25-.19.44-.19.17,0,.31.05.41.16.1.11.15.24.15.4,0,.19-.05.35-.16.47-.11.12-.26.19-.47.19h0c-.16,0-.28-.05-.38-.16Z"/>
      <path class="cls-3" d="M122.28,49.58c-.16-.15-.24-.41-.24-.77v-3.31h-.62v-.39s.11-.03.24-.06c.13-.03.22-.07.27-.1.09-.05.16-.16.22-.31.05-.11.1-.29.16-.53.06-.24.1-.39.11-.43h.51l.02,1.24h1.44v.57h-1.44v2.65c0,.33,0,.56.03.69.02.13.06.22.13.26.07.04.18.06.34.06s.33-.02.51-.06c.19-.04.33-.08.44-.13l.13.39c-.14.1-.36.2-.67.3-.31.1-.59.15-.84.15-.33,0-.57-.08-.73-.22Z"/>
      <path class="cls-3" d="M127.83,43.84l-.69-.1v-.43h1.61l2.88,4.21.48.92v-4.59l-.75-.1v-.43h2.04v.43l-.69.1v5.88h-.68l-2.93-4.31-.67-1.14v4.94l.82.09v.42h-2.1v-.42l.69-.1v-5.36Z"/>
      <path class="cls-3" d="M134.81,47.23c.54-.26,1.23-.39,2.05-.41v-.24c0-.27-.03-.48-.09-.64-.06-.16-.16-.27-.3-.34-.14-.07-.34-.11-.6-.11-.29,0-.56.04-.79.13s-.46.19-.7.31l-.22-.45c.08-.06.21-.15.42-.25.2-.1.43-.2.7-.28.26-.08.53-.12.79-.12.41,0,.73.06.97.17.24.11.41.29.51.54.1.25.16.58.16.99v2.77h.51v.38c-.12.03-.26.06-.44.09-.18.03-.33.04-.46.04-.16,0-.27-.02-.33-.07s-.09-.16-.09-.32v-.29c-.17.17-.38.33-.63.47-.25.14-.53.22-.85.22-.41,0-.76-.12-1.03-.36-.27-.24-.41-.58-.41-1.03,0-.54.27-.94.81-1.2ZM136.32,49.09c.2-.09.37-.2.54-.33v-1.48c-.63,0-1.1.1-1.42.29s-.48.44-.48.76.08.54.23.69c.15.15.36.22.62.22.15,0,.32-.05.52-.14Z"/>
      <path class="cls-3" d="M138.83,49.29l.53-.08v-3.63l-.62-.16v-.47l1.23-.16.16.11.05.35v.28c.19-.18.47-.35.82-.5.35-.15.66-.23.94-.23.31,0,.56.05.75.16.19.1.33.27.43.48.18-.16.44-.3.77-.44.33-.14.64-.2.93-.2.36,0,.64.07.84.2s.34.35.43.63c.08.29.12.67.12,1.14v2.43l.62.08v.42h-2.05v-.42l.54-.08v-2.4c0-.33-.02-.6-.07-.8-.05-.2-.14-.35-.28-.44-.14-.1-.33-.15-.58-.15-.19,0-.39.04-.6.13s-.39.18-.54.3c.05.22.08.54.08.96v2.41l.61.08v.42h-2.09v-.42l.57-.08v-2.42c0-.35-.02-.61-.07-.8-.04-.19-.12-.33-.25-.43-.12-.09-.3-.14-.55-.14-.21,0-.43.05-.66.16-.23.1-.44.22-.61.36v3.27l.58.08v.42h-2.01v-.42Z"/>
    </g>
  </g>
</svg>