<?xml version="1.0" encoding="UTF-8"?>
<svg id="Layer_2" data-name="Layer 2" xmlns="http://www.w3.org/2000/svg" viewBox="0 0 147.04 54.02">
  <defs>
    <style>
      .cls-1 {
        fill: #460078;
      }

      .cls-2 {
        fill: #fff;
      }

      .cls-3 {
        fill: #4c4c4c;
      }
    </style>
  </defs>
  <g id="Layer_1-2" data-name="Layer 1">
    <g>
      <g>
        <circle class="cls-1" cx="16.39" cy="16.39" r="16.39"/>
        <g>
          <polygon class="cls-2" points="27.67 9.53 22.09 10.08 30.31 15.62 27.67 9.53"/>
          <polygon class="cls-2" points="15 12.84 4.02 7.29 16.48 27.36 15 12.84"/>
          <polygon class="cls-2" points="16.98 27.6 25.45 12.91 21.47 10.22 15.89 16.98 16.98 27.6"/>
        </g>
      </g>
      <g>
        <path d="M42.42,11.13l-1.87-.31v-1.49h3.58c.54,0,1.25-.03,2.11-.1.21-.02.46-.03.74-.05.29-.02.62-.02,1.01-.02,2.42,0,4.11.34,5.08,1.02.97.68,1.45,1.69,1.45,3.04,0,1.18-.36,2.17-1.07,2.96-.71.79-1.64,1.28-2.79,1.45,1.58-.02,2.83.34,3.73,1.08.9.74,1.36,1.76,1.36,3.07,0,1.66-.58,3-1.75,4.01s-3.12,1.51-5.86,1.51c-.72,0-1.38-.02-1.99-.07-.16,0-.43-.01-.82-.04-.38-.02-.78-.04-1.18-.04h-3.62v-1.44l1.9-.24v-14.35ZM46.98,17.13h1.13c.98,0,1.71-.3,2.18-.91.48-.61.72-1.46.72-2.57s-.25-1.82-.74-2.3c-.5-.48-1.32-.72-2.47-.72-.3,0-.94.03-1.9.1v6.38c.18.02.54.02,1.08.02ZM48.01,25.8c1.36,0,2.34-.32,2.95-.96s.91-1.57.91-2.78-.28-2-.83-2.51-1.43-.76-2.63-.76c-1.34,0-2.18.02-2.52.05v6.74c.37.14,1.07.22,2.11.22Z"/>
        <path d="M58.92,25.57c-1.03-1.24-1.55-2.93-1.55-5.08,0-1.44.27-2.69.8-3.74.54-1.06,1.29-1.86,2.27-2.42.98-.56,2.1-.84,3.38-.84,1.6,0,2.83.42,3.7,1.26.86.84,1.31,2.04,1.34,3.59,0,1.06-.06,1.84-.19,2.35h-7.8c.06,1.46.41,2.59,1.03,3.4.62.81,1.51,1.21,2.66,1.21.62,0,1.27-.1,1.93-.31.66-.21,1.19-.46,1.57-.74l.6,1.32c-.43.46-1.13.89-2.1,1.28-.97.39-1.95.59-2.94.59-2.11,0-3.68-.62-4.72-1.86ZM65.51,19.25c.03-.45.05-.79.05-1.03,0-2.13-.71-3.19-2.14-3.19-.78,0-1.39.31-1.82.94s-.67,1.72-.72,3.29h4.63Z"/>
        <path d="M72.59,26.68c-.48-.46-.72-1.2-.72-2.21v-8.81h-1.56v-1.25c.13-.05.36-.13.7-.25s.59-.22.77-.3c.27-.21.5-.57.7-1.08.14-.34.41-1.17.79-2.5h1.92l.1,3.53h3.67v1.85h-3.65v6.74c0,.9.02,1.53.07,1.9.05.37.15.6.31.71.16.1.44.16.84.16s.82-.04,1.25-.13c.43-.09.79-.2,1.08-.32l.46,1.34c-.45.34-1.1.64-1.97.91-.86.27-1.7.41-2.52.41-1.01,0-1.75-.23-2.23-.7Z"/>
        <path d="M81.48,16.68c.6-1.06,1.4-1.85,2.41-2.39s2.1-.8,3.29-.8c2.02,0,3.57.62,4.67,1.86,1.1,1.24,1.64,2.92,1.64,5.05,0,1.52-.3,2.81-.9,3.88-.6,1.06-1.4,1.86-2.4,2.38-1,.52-2.1.78-3.3.78-2,0-3.55-.62-4.66-1.86-1.1-1.24-1.66-2.92-1.66-5.05,0-1.5.3-2.78.9-3.84ZM89.8,20.64c0-1.82-.22-3.21-.65-4.16-.43-.95-1.14-1.43-2.11-1.43-1.86,0-2.78,1.74-2.78,5.23,0,1.82.23,3.21.68,4.16.46.95,1.17,1.43,2.15,1.43,1.81,0,2.71-1.74,2.71-5.23Z"/>
        <path d="M97.02,16.1l-1.54-.43v-1.66l3.98-.5h.07l.6.48v.94l-.02.58c.56-.53,1.29-.98,2.18-1.37s1.8-.58,2.71-.58c.98,0,1.74.18,2.29.54.55.36.95.92,1.19,1.69.24.77.36,1.81.36,3.12v6.62l1.46.19v1.44h-6.19v-1.44l1.3-.19v-6.62c0-.83-.06-1.48-.17-1.96-.11-.47-.32-.82-.61-1.03-.3-.22-.72-.32-1.26-.32-.91,0-1.89.39-2.93,1.18v8.74l1.44.22v1.44h-6.26v-1.44l1.39-.22v-9.41Z"/>
        <path d="M113.95,20.13c1.46-.74,3.36-1.11,5.68-1.13v-.55c0-.66-.07-1.17-.2-1.54s-.38-.64-.74-.83c-.36-.18-.88-.28-1.57-.28-.79,0-1.49.1-2.11.3s-1.27.46-1.94.78l-.74-1.54c.24-.21.64-.46,1.21-.74.57-.29,1.24-.54,2.03-.76.78-.22,1.59-.32,2.42-.32,1.23,0,2.2.16,2.89.48.7.32,1.2.83,1.5,1.54.3.7.46,1.65.46,2.83v7.34h1.3v1.34c-.32.08-.78.16-1.37.24-.59.08-1.11.12-1.56.12-.54,0-.91-.08-1.09-.24-.18-.16-.28-.49-.28-.98v-.65c-.43.48-.99.91-1.68,1.3s-1.46.58-2.33.58c-.74,0-1.41-.16-2.03-.47-.62-.31-1.11-.77-1.48-1.37s-.55-1.32-.55-2.17c0-1.46.73-2.55,2.2-3.29ZM118.5,25.14c.43-.2.81-.44,1.13-.73v-3.94c-1.44,0-2.52.24-3.23.73-.71.49-1.07,1.12-1.07,1.88s.18,1.35.54,1.75c.36.4.85.6,1.48.6.34,0,.72-.1,1.15-.3Z"/>
        <path d="M124.53,8.01l4.39-.53h.05l.67.46v7.08c.43-.43.96-.8,1.6-1.09.63-.3,1.32-.44,2.05-.44,1.54,0,2.79.54,3.76,1.62.97,1.08,1.45,2.73,1.45,4.96,0,1.38-.29,2.62-.86,3.74s-1.4,2-2.48,2.65c-1.08.65-2.33.97-3.76.97-1.26,0-2.36-.11-3.29-.32-.93-.22-1.52-.41-1.78-.59V9.55l-1.8-.29v-1.25ZM130.66,15.92c-.42.22-.76.46-1.02.73v8.76c.1.18.32.32.67.43.35.11.75.17,1.2.17,1.02,0,1.84-.48,2.46-1.43.62-.95.92-2.36.92-4.24,0-1.62-.26-2.81-.79-3.59-.53-.78-1.22-1.16-2.09-1.16-.48,0-.93.11-1.36.32Z"/>
        <path d="M142.02,16.1l-1.7-.46v-1.61l4.39-.53h.05l.67.48v11.54l1.61.19v1.44h-6.7v-1.44l1.68-.22v-9.41ZM141.92,11.13c-.34-.34-.5-.77-.5-1.3,0-.61.19-1.11.58-1.51.38-.4.9-.6,1.54-.6s1.13.17,1.46.52c.34.34.5.77.5,1.28,0,.64-.19,1.15-.58,1.54-.38.38-.92.58-1.61.58h-.02c-.58,0-1.03-.17-1.37-.5Z"/>
      </g>
    </g>
    <g>
      <path class="cls-3" d="M1.45,48.24c1.08-1.14,3.32-3.64,4.13-4.5.37-.37.74-.54,1.11-.54s.77.2,1.15.54c1.83,1.68,4.79,4.96,6.93,7.74l-.85.78c-2.02-2.8-4.99-6.17-6.58-7.64-.24-.23-.43-.35-.61-.35s-.36.14-.58.35c-.67.72-2.74,3.11-3.69,4.13.01.03.01.07.01.1,0,.11-.06.23-.14.3l-.88-.91ZM10.87,42.34c.65.57,1.38,1.45,1.79,2.07l-.54.43c-.41-.62-1.17-1.55-1.78-2.07l.53-.43ZM12.55,41.09c.65.58,1.39,1.43,1.8,2.07l-.54.43c-.41-.62-1.18-1.53-1.78-2.06l.51-.44Z"/>
      <path class="cls-3" d="M25.04,48.78c-1.45-.78-3.44-1.71-4.99-2.32v7.1h-1.07v-12.34l1.43.08c-.01.16-.13.26-.37.3v4.15l.21-.3c1.66.61,3.86,1.59,5.34,2.37l-.57.95Z"/>
      <path class="cls-3" d="M40.45,45.99h-5.14c-.27,3.65-1.19,5.87-4.29,7.64-.2-.23-.54-.5-.81-.7,2.94-1.63,3.81-3.58,4.08-6.95h-5.7v-.98h5.74c.04-1.11.06-2.39.06-3.82l1.39.08c-.01.14-.14.23-.34.26-.01,1.29-.01,2.44-.07,3.48h5.08v.98Z"/>
      <path class="cls-3" d="M53.7,53.22c-.21-.48-.47-.99-.75-1.51-2.96.31-7.81.61-9.99.72-.04.14-.14.26-.27.28l-.38-1.28c.43-.01.94-.03,1.49-.06.94-2.73,2.29-6.97,3.07-9.82l1.38.37c-.06.13-.2.2-.41.2-.78,2.61-2,6.42-2.98,9.21,2.36-.1,5.72-.34,7.6-.51-.74-1.22-1.68-2.51-2.53-3.47l.85-.48c1.49,1.63,3.2,4.33,3.92,5.88l-.99.46Z"/>
      <path class="cls-3" d="M68.72,46.9s-.06.03-.08.03c-.08,0-.16-.04-.21-.09-1.08.36-2.66.94-3.84,1.45.03.33.04.7.04,1.11,0,.45-.01.97-.04,1.52l-1.04.06c.04-.51.07-1.16.07-1.72,0-.21,0-.41-.01-.57-1.61.78-2.91,1.73-2.91,2.59s.98,1.22,2.94,1.22c1.38,0,2.66-.03,3.57-.14v.95c-.82.08-2.1.11-3.57.11-2.73,0-3.94-.65-3.94-2.1,0-1.25,1.65-2.46,3.78-3.52-.09-.9-.48-1.33-1.05-1.33-1.04,0-2.12.58-3.39,2-.4.44-.95.99-1.56,1.55l-.7-.7c1.42-1.25,2.76-2.44,3.58-5.24h-.79s-2.37.01-2.37.01v-.92c.87.01,1.88.01,2.46.01h.97c.16-.67.28-1.28.38-2.05l1.39.17c-.03.14-.14.23-.36.26-.1.57-.23,1.07-.36,1.58.97-.01,3.04-.24,4.89-.82l.17.95c-1.78.55-3.92.75-5.33.8-.34,1.07-.7,1.92-1.02,2.4h.01c.62-.55,1.56-.92,2.29-.92.97,0,1.58.7,1.76,1.85,1.19-.54,2.7-1.12,3.84-1.56l.44,1.08Z"/>
      <path class="cls-3" d="M71.29,50.1c1.05.84,2.44,2.24,3.21,3.14l-.85.78c-.71-.91-2.16-2.4-3.11-3.25l.75-.67Z"/>
      <path class="cls-3" d="M81.25,47.02c-.57-.47-1.71-1.04-2.63-1.36.25-.41.37-.58.48-.75.92.3,2.07.82,2.64,1.26l-.5.85ZM79.01,53.25c.7-1.09,1.69-2.97,2.42-4.57l.74.57c-.67,1.49-1.55,3.24-2.2,4.32.06.07.07.13.07.2,0,.06-.01.11-.04.16l-.98-.67ZM79.87,40.99c.91.41,2.02,1.08,2.56,1.59l-.58.78c-.54-.53-1.62-1.25-2.53-1.69l.55-.68ZM91.82,49.12h-3.67c.89,1.42,2.36,2.83,3.75,3.48-.23.18-.53.53-.68.78-1.38-.78-2.83-2.32-3.74-3.89v4.49h-.94v-4.42c-1.01,1.66-2.56,3.12-4.08,3.92-.14-.23-.43-.55-.62-.74,1.53-.68,3.08-2.09,4.03-3.62h-3.35v-.88h4.02v-1.68l1.21.07c-.01.1-.08.17-.27.2v1.41h4.33v.88ZM86.38,42.78c-.01.1-.1.17-.27.18-.21,2.03-.8,3.41-3.3,4.13-.08-.21-.33-.54-.5-.7,2.24-.6,2.76-1.75,2.93-3.72l1.14.1ZM83.78,42.3v1.92h-.87v-2.76h8.5v2.74h-.88v-1.9h-6.75ZM87.94,42.6l1.17.08c-.01.08-.08.16-.27.18v2.57c0,.3.06.34.45.34h1.29c.31,0,.37-.11.41-.97.18.13.53.26.8.31-.1,1.17-.36,1.46-1.09,1.46h-1.52c-.99,0-1.24-.24-1.24-1.15v-2.84Z"/>
      <path class="cls-3" d="M97.81,48.11l-1.42.45v4.3c0,1.04-.44,1.18-2.26,1.15-.04-.23-.17-.62-.3-.89.4.01.74.03,1.01.03.58,0,.65,0,.65-.28v-4.01l-1.46.45c-.03.11-.1.19-.2.23l-.34-1.11c.55-.13,1.25-.31,2-.53v-3.22h-1.86v-.89h1.86v-2.97l1.17.07c-.01.11-.08.17-.27.2v2.7h1.38v.89h-1.38v2.97l1.31-.37.11.82ZM106.31,44.96h-7.05v.84c0,2.42-.2,5.88-1.62,8.22-.16-.17-.54-.44-.75-.53,1.36-2.24,1.48-5.4,1.48-7.7v-4.36h7.94v3.52ZM105.4,42.26h-6.14v1.88h6.14v-1.88ZM105.43,50.06l1.07.07c-.01.08-.08.16-.26.17v3.65h-.81v-.54h-4.86v.61h-.79v-3.96l1.07.07c-.01.08-.09.16-.27.17v2.3h1.96v-3.41h-2.49v-3.18l1.04.07c-.01.08-.08.16-.26.18v2.13h1.71v-3.12l1.09.07c-.01.1-.08.18-.27.21v2.84h1.78v-2.4l1.07.07c-.01.1-.08.16-.26.18v2.94h-2.59v3.41h2.07v-2.54Z"/>
      <path class="cls-3" d="M109.9,49.2c-.27-.77-.4-1.88-.41-2.67,0-1.33.14-2.88.48-4.69l1.42.24c-.06.18-.23.23-.41.24-.28,1.18-.48,2.98-.48,4.13,0,.31.01.57.04.77.28-.7.81-1.66,1.11-2.2.13.18.41.48.55.62-1.05,1.89-1.36,2.43-1.36,3.03,0,.11.01.23.04.36l-.98.17ZM117.52,41.48c-.01.17-.13.24-.37.31.1,1.24.24,3.29.24,4.93-.01,2.74-1.01,5.21-5.29,6.99-.16-.23-.5-.61-.71-.82,3.88-1.48,4.92-3.82,4.92-6.15,0-1.75-.17-3.81-.33-5.33l1.53.07Z"/>
      <path class="cls-3" d="M127.29,43.17c-.01-.31-.06-1.86-.08-2.22l1.46.06c-.01.11-.11.25-.37.3,0,.17,0,.34.03,1.83,1.75-.06,3.58-.1,4.65-.11v.98c-1.21-.03-2.93,0-4.62.06.03,1.11.06,2.13.1,2.91.14.47.17.9.17,1.49,0,.45-.04.98-.14,1.38-.37,1.66-1.59,3.12-4.09,4.12-.18-.24-.5-.6-.72-.81,2.17-.78,3.34-1.96,3.69-3.31h-.01c-.3.43-.82.75-1.46.75-1.26,0-2.39-1.04-2.39-2.49-.01-1.51,1.21-2.66,2.56-2.66.51,0,1.04.18,1.32.44,0-.24-.03-1.19-.06-1.8-1.48.03-5.97.18-6.55.21l-.03-.94,3.24-.08,3.31-.11ZM127.56,48.15c0-.55,0-1.85-1.45-1.85-.98.01-1.68.77-1.69,1.8,0,.99.75,1.65,1.58,1.65,1.01,0,1.56-.78,1.56-1.6Z"/>
      <path class="cls-3" d="M138.74,47.06c.94-.48,2.4-.82,3.52-.82,2.26,0,3.68,1.32,3.68,3.41,0,2.57-2.26,3.99-5.11,3.99-1.85,0-3.11-.74-3.11-1.99,0-1.05,1.04-1.9,2.33-1.9,1.61,0,2.68,1.28,2.9,2.57,1.14-.43,1.96-1.34,1.96-2.66,0-1.53-1.14-2.51-2.93-2.51-2.13,0-4.22.95-5.16,1.86-.43.4-.98,1-1.36,1.44l-.72-.72c1.28-1.34,5.34-5.21,7.27-7.02-.82.11-3.67.23-5.28.28-.04.1-.18.18-.3.21l-.11-1.21c1.92-.01,5.58-.16,6.62-.31l.21-.1.75.92c-.07.06-.2.11-.34.13-1.01.82-3.71,3.35-4.82,4.42h0ZM140.7,52.74c.43,0,.92-.06,1.29-.14-.16-1.09-.97-2.02-2.02-2.02-.74,0-1.39.4-1.39,1.05,0,.87,1.18,1.11,2.12,1.11Z"/>
    </g>
  </g>
</svg>